<svg xmlns="http://www.w3.org/2000/svg" width="856.5" height="286.149" viewBox="0 0 226.616 75.71"><path d="M46.603.136a12.64 12.64 0 00-3.236.331v5.67c6.992-1.512 7.182 4.724 7.182 4.724l-.19 16.631s.567 8.127 6.237 10.017c-5.292 2.079-6.236 9.071-6.236 9.071s-.19 13.04-.567 18.52c-.378 5.482-6.993 3.97-6.993 3.97v5.669s.378.756 6.048-.567 6.425-6.425 6.425-6.425.568-17.198.568-22.112c0-4.914 6.425-4.725 6.425-4.725s.19-4.157.19-6.803c-4.159-.19-6.805-5.48-6.805-5.48l-.378-20.6s.19-2.268-3.023-5.67C50.643.656 48.422.184 46.603.137zm-28.05.618c-.866.02-2.333.201-4.814.78C8.07 2.857 7.314 7.96 7.314 7.96s-.567 17.198-.567 22.111c0 4.914-6.426 4.725-6.426 4.725S.132 38.954.132 41.6c4.158.19 6.803 5.481 6.803 5.481l.379 20.6s-.19 2.268 3.023 5.67c3.213 3.401 8.883 1.89 8.883 1.89v-5.67c-6.993 1.512-7.181-4.725-7.181-4.725l.188-16.63s-.567-8.127-6.236-10.017c5.292-2.079 6.236-9.072 6.236-9.072s.19-13.04.568-18.52c.378-5.481 6.992-3.97 6.992-3.97V.968s-.12-.239-1.234-.213zm13.909 18.32L45.597 52.43l3.78.047L36.1 19.074zm-3.93.56L15.797 52.503l4.421.049 8.345-21.345 8.403 21.54 4.304-.098zm72.04 4.327c-3.498 0-6.213 1.223-8.145 3.667-1.933 2.445-2.9 5.897-2.9 10.357 0 2.913.442 5.448 1.324 7.607.893 2.146 2.18 3.79 3.86 4.935 1.68 1.144 3.682 1.716 6.003 1.716 1.995 0 3.844-.403 5.545-1.21a12.16 12.16 0 004.333-3.452v-9.479h-9.406v3.12h6.633v4.955c-.777.936-1.796 1.677-3.056 2.224-1.25.546-2.6.819-4.05.819-2.54 0-4.532-1.002-5.97-3.004-1.44-2.016-2.158-4.759-2.158-8.23 0-3.486.677-6.184 2.031-8.095 1.355-1.925 3.314-2.887 5.877-2.887 1.649 0 3.025.358 4.127 1.073 1.114.715 1.986 1.853 2.616 3.413l2.867-1.053c-.83-2.263-2.011-3.908-3.545-4.935-1.533-1.028-3.529-1.54-5.986-1.54zm-33.32.41v27.482h2.678V33.596l-.079-3.257-.079-1.892 11.879 23.406h3.623V24.37h-2.71v18.022c0 1.144.064 2.99.19 5.54L70.749 24.37zm48.397 0v27.482h17.487V48.81h-14.478v-9.577h12.886V36.23h-12.886v-8.817h13.832v-3.042zm21.52 0v27.482h14.226V48.81h-11.217V24.37zm25.711 0v27.482h8.302c2.143 0 4.033-.566 5.672-1.697 1.638-1.131 2.904-2.757 3.796-4.876.893-2.133 1.34-4.616 1.34-7.45 0-4.305-1.024-7.621-3.072-9.949-2.038-2.34-4.937-3.51-8.697-3.51zm23.3 0v27.482h17.488V48.81h-14.479v-9.577h12.888V36.23h-12.888v-8.817h13.833v-3.042zm19.016 0l9.059 27.482h3.119l9.059-27.482h-3.167l-6.113 19.348-1.323 4.857-1.323-4.857-6.145-19.348zm-39.307 2.984h4.27c2.856 0 5.035.897 6.537 2.692 1.513 1.781 2.269 4.375 2.269 7.782 0 2.263-.33 4.226-.992 5.89-.662 1.665-1.613 2.939-2.852 3.823-1.229.884-2.657 1.327-4.285 1.327h-4.947z" fill="#ee1f4e" stroke="#ee1f4e" stroke-width=".265"/></svg>