<svg xmlns="http://www.w3.org/2000/svg" width="236.551" height="286.149" viewBox="0 0 62.587 75.71"><g fill="#ee1f4e" stroke="#ee1f4e" stroke-width=".265"><path d="M46.603.136a12.64 12.64 0 00-3.236.331v5.67c6.992-1.512 7.182 4.724 7.182 4.724l-.19 16.631s.567 8.127 6.237 10.017c-5.292 2.079-6.236 9.071-6.236 9.071s-.19 13.04-.567 18.52c-.378 5.482-6.993 3.97-6.993 3.97v5.669s.378.756 6.048-.567 6.425-6.425 6.425-6.425.568-17.198.568-22.112c0-4.914 6.425-4.725 6.425-4.725s.19-4.157.19-6.803c-4.159-.19-6.805-5.48-6.805-5.48l-.378-20.6s.19-2.268-3.023-5.67C50.643.656 48.422.184 46.603.137zm-28.05.618c-.866.02-2.333.201-4.814.78C8.07 2.857 7.314 7.96 7.314 7.96s-.567 17.198-.567 22.111c0 4.914-6.426 4.725-6.426 4.725S.132 38.954.132 41.6c4.158.19 6.803 5.481 6.803 5.481l.379 20.6s-.19 2.268 3.023 5.67c3.213 3.401 8.883 1.89 8.883 1.89v-5.67c-6.993 1.512-7.181-4.725-7.181-4.725l.188-16.63s-.567-8.127-6.236-10.017c5.292-2.079 6.236-9.072 6.236-9.072s.19-13.04.568-18.52c.378-5.481 6.992-3.97 6.992-3.97V.968s-.12-.239-1.234-.213z"/><path d="M32.462 19.074L45.597 52.43l3.78.047L36.1 19.074zm-3.929.561L15.796 52.502l4.421.049 8.345-21.345 8.403 21.54 4.304-.098z"/></g></svg>