<?xml version="1.0" encoding="UTF-8" standalone="no"?>
<!-- Created with Inkscape (http://www.inkscape.org/) -->

<svg
   xmlns:osb="http://www.openswatchbook.org/uri/2009/osb"
   xmlns:dc="http://purl.org/dc/elements/1.1/"
   xmlns:cc="http://creativecommons.org/ns#"
   xmlns:rdf="http://www.w3.org/1999/02/22-rdf-syntax-ns#"
   xmlns:svg="http://www.w3.org/2000/svg"
   xmlns="http://www.w3.org/2000/svg"
   xmlns:sodipodi="http://sodipodi.sourceforge.net/DTD/sodipodi-0.dtd"
   xmlns:inkscape="http://www.inkscape.org/namespaces/inkscape"
   width="226.61559mm"
   height="75.710243mm"
   viewBox="0 0 226.61559 75.710243"
   version="1.1"
   id="svg8"
   sodipodi:docname="minlogoPersonal.svg"
   inkscape:version="0.92.5 (2060ec1f9f, 2020-04-08)">
  <defs
     id="defs2">
    <linearGradient
       id="linearGradient993"
       osb:paint="solid">
      <stop
         style="stop-color:#000000;stop-opacity:1;"
         offset="0"
         id="stop991" />
    </linearGradient>
  </defs>
  <sodipodi:namedview
     id="base"
     pagecolor="#ffffff"
     bordercolor="#666666"
     borderopacity="1.0"
     inkscape:pageopacity="0.0"
     inkscape:pageshadow="2"
     inkscape:zoom="1"
     inkscape:cx="446.40066"
     inkscape:cy="253.47942"
     inkscape:document-units="mm"
     inkscape:current-layer="layer1"
     showgrid="false"
     showguides="false"
     inkscape:window-width="1920"
     inkscape:window-height="1007"
     inkscape:window-x="0"
     inkscape:window-y="0"
     inkscape:window-maximized="1" />
  <metadata
     id="metadata5">
    <rdf:RDF>
      <cc:Work
         rdf:about="">
        <dc:format>image/svg+xml</dc:format>
        <dc:type
           rdf:resource="http://purl.org/dc/dcmitype/StillImage" />
        <dc:title></dc:title>
      </cc:Work>
    </rdf:RDF>
  </metadata>
  <g
     inkscape:label="Capa 1"
     inkscape:groupmode="layer"
     id="layer1"
     transform="translate(-13.286011,-147.86611)">
    <path
       style="fill:#ee1f4e;stroke:#ee1f4e;stroke-width:0.99999994px;stroke-linecap:butt;stroke-linejoin:miter;stroke-opacity:1;fill-opacity:1"
       d="m 226.35352,230.56055 c -6.87501,-0.17857 -12.23243,1.25 -12.23243,1.25 v 21.42773 c 26.42858,-5.71427 27.14453,17.85742 27.14453,17.85742 l -0.71484,62.85742 c 0,0 2.14175,30.71457 23.57031,37.85743 -20.00001,7.85714 -23.57031,34.28515 -23.57031,34.28515 0,0 -0.71403,49.2857 -2.14258,70 -1.42858,20.71427 -26.42968,15 -26.42968,15 v 21.42774 c 0,0 1.42886,2.85743 22.85742,-2.14258 21.42856,-4.99998 24.28515,-24.28516 24.28515,-24.28516 0,0 2.14453,-65.00084 2.14453,-83.57226 10e-6,-18.57143 24.28516,-17.85742 24.28516,-17.85742 0,0 0.71484,-15.71291 0.71484,-25.7129 -15.71429,-0.71429 -25.71484,-20.71484 -25.71484,-20.71484 l -1.42969,-77.85742 c 0,0 0.71514,-8.57061 -11.42773,-21.42774 -6.07141,-6.42857 -14.46484,-8.214 -21.33984,-8.39257 z m -106.01563,2.33593 c -3.27393,0.0769 -8.82032,0.75976 -18.19531,2.94727 -21.428563,4.99997 -24.285158,24.28516 -24.285158,24.28516 0,0 -2.142578,65.00084 -2.142578,83.57226 0,18.57143 -24.28711,17.85742 -24.28711,17.85742 0,0 -0.71289,15.71291 -0.71289,25.71289 15.714293,0.7143 25.71289,20.71485 25.71289,20.71485 l 1.429688,77.85742 c 0,0 -0.715132,8.57061 11.427734,21.42773 12.142824,12.85716 33.572264,7.14454 33.572264,7.14454 V 492.98633 C 96.428849,498.7006 95.714844,475.12891 95.714844,475.12891 l 0.71289,-62.85743 c 0,0 -2.141751,-30.71261 -23.570312,-37.85546 20.000012,-7.85715 23.570312,-34.28711 23.570312,-34.28711 0,0 0.715984,-49.2857 2.144532,-70 1.428584,-20.71427 26.427734,-15 26.427734,-15 v -21.42774 c 0,0 -0.45277,-0.90357 -4.66211,-0.80469 z m 52.56641,69.23829 49.64453,126.07226 14.28515,0.17774 -50.17968,-126.25 z m -14.84961,2.12109 -48.13672,124.22266 16.70898,0.18359 31.53907,-80.67188 31.75976,81.40821 16.26758,-0.36914 z m 272.27343,16.35156 c -13.21869,0 -23.47917,4.62 -30.7832,13.85938 -7.30402,9.23937 -10.95703,22.28758 -10.95703,39.14453 0,11.00862 1.66751,20.59182 5.00195,28.75 3.37415,8.10903 8.23657,14.32557 14.58789,18.65039 6.35133,4.32481 13.91473,6.48633 22.6875,6.48633 7.54221,0 14.52827,-1.52329 20.95899,-4.57032 6.47041,-3.09617 11.92907,-7.44622 16.375,-13.04882 v -35.82618 h -35.54883 v 11.79493 h 25.06836 v 18.72461 c -2.93749,3.53848 -6.78729,6.34018 -11.55078,8.40429 -4.7238,2.06412 -9.82472,3.09571 -15.30274,3.09571 -9.60638,0 -17.13003,-3.78509 -22.56835,-11.35352 -5.43833,-7.61757 -8.15626,-17.98554 -8.15626,-31.10742 0,-13.17103 2.55893,-23.36934 7.67969,-30.59375 5.12076,-7.27355 12.52517,-10.91016 22.21094,-10.91016 6.23224,0 11.43155,1.35168 15.59961,4.05469 4.20775,2.70301 7.50302,7.00291 9.88476,12.90039 l 10.83594,-3.98047 c -3.13597,-8.55134 -7.6009,-14.76984 -13.39648,-18.65234 -5.79559,-3.88251 -13.33814,-5.82227 -22.62696,-5.82227 z m -125.93359,1.54688 v 103.86914 h 10.12109 v -69 l -0.29687,-12.31055 -0.29883,-7.15039 44.89649,88.46094 h 13.69531 V 322.1543 h -10.24219 v 68.11718 c 0,4.32482 0.2385,11.30301 0.71485,20.93555 l -45.3711,-89.05273 z m 182.91797,0 v 103.86914 h 66.09375 v -11.5 h -54.7207 v -36.19532 h 48.70507 V 366.97656 H 498.68555 V 333.6543 h 52.27929 v -11.5 z m 81.33594,0 v 103.86914 h 53.76758 v -11.5 H 580.02148 V 322.1543 Z m 97.17578,0 v 103.86914 h 31.3789 c 8.09795,0 15.24301,-2.13644 21.43555,-6.41211 6.19255,-4.27567 10.97547,-10.41895 14.34961,-18.42969 3.37414,-8.05988 5.0625,-17.44641 5.0625,-28.16016 0,-16.2672 -3.87065,-28.80058 -11.61133,-37.59765 -7.70098,-8.84621 -18.65804,-13.26953 -32.86914,-13.26953 z m 88.06445,0 v 103.86914 h 66.09375 v -11.5 h -54.7207 v -36.19532 h 48.70703 V 366.97656 H 765.26172 V 333.6543 h 52.2793 v -11.5 z m 71.86914,0 34.23828,103.86914 h 11.78907 L 906.02344,322.1543 h -11.96875 l -23.10352,73.1289 -5,18.35547 -5.00195,-18.35547 -23.22266,-73.1289 z m -148.56054,11.27929 h 16.13671 c 10.79726,0 19.03249,3.39174 24.70899,10.17383 5.71619,6.73295 8.57422,16.53791 8.57422,29.41406 0,8.55134 -1.24917,15.97108 -3.75,22.26172 -2.50084,6.29064 -6.09324,11.10732 -10.77735,14.44922 -4.6444,3.3419 -10.04441,5.01367 -16.19726,5.01367 h -18.69531 z"
       transform="matrix(0.26458333,0,0,0.26458333,0,87)"
       id="path57"
       inkscape:connector-curvature="0" />
  </g>
</svg>
