<?xml version="1.0" encoding="UTF-8" standalone="no"?>
<!-- Created with Inkscape (http://www.inkscape.org/) -->

<svg
   xmlns:osb="http://www.openswatchbook.org/uri/2009/osb"
   xmlns:dc="http://purl.org/dc/elements/1.1/"
   xmlns:cc="http://creativecommons.org/ns#"
   xmlns:rdf="http://www.w3.org/1999/02/22-rdf-syntax-ns#"
   xmlns:svg="http://www.w3.org/2000/svg"
   xmlns="http://www.w3.org/2000/svg"
   xmlns:sodipodi="http://sodipodi.sourceforge.net/DTD/sodipodi-0.dtd"
   xmlns:inkscape="http://www.inkscape.org/namespaces/inkscape"
   width="62.587391mm"
   height="75.710243mm"
   viewBox="0 0 62.587392 75.710243"
   version="1.1"
   id="svg8"
   inkscape:version="0.92.5 (2060ec1f9f, 2020-04-08)"
   sodipodi:docname="minlogoPersonal.svg">
  <defs
     id="defs2">
    <linearGradient
       id="linearGradient993"
       osb:paint="solid">
      <stop
         style="stop-color:#000000;stop-opacity:1;"
         offset="0"
         id="stop991" />
    </linearGradient>
  </defs>
  <sodipodi:namedview
     id="base"
     pagecolor="#ffffff"
     bordercolor="#666666"
     borderopacity="1.0"
     inkscape:pageopacity="0.0"
     inkscape:pageshadow="2"
     inkscape:zoom="1"
     inkscape:cx="446.40066"
     inkscape:cy="253.47942"
     inkscape:document-units="mm"
     inkscape:current-layer="layer1"
     showgrid="false"
     showguides="false"
     inkscape:window-width="1920"
     inkscape:window-height="1007"
     inkscape:window-x="0"
     inkscape:window-y="0"
     inkscape:window-maximized="1" />
  <metadata
     id="metadata5">
    <rdf:RDF>
      <cc:Work
         rdf:about="">
        <dc:format>image/svg+xml</dc:format>
        <dc:type
           rdf:resource="http://purl.org/dc/dcmitype/StillImage" />
        <dc:title></dc:title>
      </cc:Work>
    </rdf:RDF>
  </metadata>
  <g
     inkscape:label="Capa 1"
     inkscape:groupmode="layer"
     id="layer1"
     transform="translate(-13.286011,-147.86611)">
    <path
       style="fill:#ee1f4e;fill-opacity:1;stroke:#ee1f4e;stroke-width:0.99999994px;stroke-linecap:butt;stroke-linejoin:miter;stroke-opacity:1"
       d="m 226.35352,230.56055 c -6.87501,-0.17857 -12.23243,1.25 -12.23243,1.25 v 21.42773 c 26.42858,-5.71427 27.14453,17.85742 27.14453,17.85742 l -0.71484,62.85742 c 0,0 2.14175,30.71457 23.57031,37.85743 -20.00001,7.85714 -23.57031,34.28515 -23.57031,34.28515 0,0 -0.71403,49.2857 -2.14258,70 -1.42858,20.71427 -26.42968,15 -26.42968,15 v 21.42774 c 0,0 1.42886,2.85743 22.85742,-2.14258 21.42856,-4.99998 24.28515,-24.28516 24.28515,-24.28516 0,0 2.14453,-65.00084 2.14453,-83.57226 10e-6,-18.57143 24.28516,-17.85742 24.28516,-17.85742 0,0 0.71484,-15.71291 0.71484,-25.7129 -15.71429,-0.71429 -25.71484,-20.71484 -25.71484,-20.71484 l -1.42969,-77.85742 c 0,0 0.71514,-8.57061 -11.42773,-21.42774 -6.07141,-6.42857 -14.46484,-8.214 -21.33984,-8.39257 z"
       transform="matrix(0.26458333,0,0,0.26458333,0,87)"
       id="path2603"
       inkscape:connector-curvature="0" />
    <path
       style="fill:#ee1f4e;fill-opacity:1;stroke:#ee1f4e;stroke-width:0.99999994px;stroke-linecap:butt;stroke-linejoin:miter;stroke-opacity:1"
       d="m 120.33789,232.89648 c -3.27393,0.0769 -8.82032,0.75976 -18.19531,2.94727 -21.428563,4.99997 -24.285158,24.28516 -24.285158,24.28516 0,0 -2.142578,65.00084 -2.142578,83.57226 0,18.57143 -24.28711,17.85742 -24.28711,17.85742 0,0 -0.71289,15.71291 -0.71289,25.71289 15.714293,0.7143 25.71289,20.71485 25.71289,20.71485 l 1.429688,77.85742 c 0,0 -0.715132,8.57061 11.427734,21.42773 12.142824,12.85716 33.572264,7.14454 33.572264,7.14454 V 492.98633 C 96.428849,498.7006 95.714844,475.12891 95.714844,475.12891 l 0.71289,-62.85743 c 0,0 -2.141751,-30.71261 -23.570312,-37.85546 20.000012,-7.85715 23.570312,-34.28711 23.570312,-34.28711 0,0 0.715984,-49.2857 2.144532,-70 1.428584,-20.71427 26.427734,-15 26.427734,-15 v -21.42774 c 0,0 -0.45277,-0.90357 -4.66211,-0.80469 z"
       transform="matrix(0.26458333,0,0,0.26458333,0,87)"
       id="path2601"
       inkscape:connector-curvature="0" />
    <path
       style="fill:#ee1f4e;fill-opacity:1;stroke:#ee1f4e;stroke-width:0.99999994px;stroke-linecap:butt;stroke-linejoin:miter;stroke-opacity:1"
       d="m 172.9043,302.13477 49.64453,126.07226 14.28515,0.17774 -50.17968,-126.25 z"
       transform="matrix(0.26458333,0,0,0.26458333,0,87)"
       id="path2599"
       inkscape:connector-curvature="0" />
    <path
       style="fill:#ee1f4e;fill-opacity:1;stroke:#ee1f4e;stroke-width:0.99999994px;stroke-linecap:butt;stroke-linejoin:miter;stroke-opacity:1"
       d="m 158.05469,304.25586 -48.13672,124.22266 16.70898,0.18359 31.53907,-80.67188 31.75976,81.40821 16.26758,-0.36914 z"
       transform="matrix(0.26458333,0,0,0.26458333,0,87)"
       id="path2597"
       inkscape:connector-curvature="0" />
  </g>
</svg>
